<?xml version="1.0" encoding="UTF-8"?>
<svg version="1.1" xmlns="http://www.w3.org/2000/svg" width="1000" height="1000">
<path d="M0 0 C330 0 660 0 1000 0 C1000 330 1000 660 1000 1000 C670 1000 340 1000 0 1000 C0 670 0 340 0 0 Z " fill="#000000" transform="translate(0,0)"/>
<path d="M0 0 C70.62 0 141.24 0 214 0 C216.37809041 12.48497465 218.70444804 24.85907909 220.515625 37.41796875 C220.73703944 38.93057453 220.95879127 40.44313095 221.18084717 41.9556427 C221.64404524 45.11724306 222.10426 48.27925698 222.56201172 51.44165039 C223.11965622 55.29364305 223.68300384 59.14476939 224.2485733 62.99560547 C227.01269611 81.82859923 229.65259706 100.67732551 232.23662567 119.53582573 C236.67036998 151.88944734 241.3307439 184.20796275 246.03847861 216.52263886 C247.13104889 224.0228463 248.22107447 231.52342305 249.31098366 239.02401757 C251.53801163 254.3497303 253.76798783 269.67501232 256 285 C257.44456106 277.46462584 258.60378512 269.9312455 259.56251526 262.3197937 C259.70644288 261.1962908 259.85037049 260.0727879 259.99865955 258.91523945 C260.47655577 255.17935377 260.95030562 251.44295441 261.42407227 247.70654297 C261.76697389 245.01684604 262.11077542 242.32726434 262.45455933 239.63768005 C263.19241555 233.8616966 263.92824079 228.08545742 264.66275215 222.3090477 C265.72494303 213.95629556 266.79119529 205.60406555 267.85858523 197.25197639 C269.59084368 183.6972021 271.32113142 170.14217716 273.04956055 156.58691406 C273.15283875 155.77695906 273.25611695 154.96700405 273.3625248 154.13250495 C274.51655952 145.081702 275.67013732 136.0308409 276.82324219 126.97991943 C277.24242515 123.68973713 277.66161378 120.39955555 278.08081055 117.109375 C278.18426454 116.29738057 278.28771854 115.48538614 278.3943075 114.64878581 C280.11683106 101.12970131 281.84266167 87.61104128 283.57109874 74.09271157 C284.63693391 65.75553118 285.69987458 57.41799154 286.75913095 49.0799727 C287.48374184 43.37778608 288.2113872 37.67599209 288.94146771 31.9745032 C289.36303375 28.68149325 289.78269029 25.38825895 290.19957161 22.09465218 C290.65062239 18.53271124 291.10685987 14.97147333 291.56446838 11.41036987 C291.69637449 10.35855715 291.8282806 9.30674442 291.96418387 8.22305858 C292.08686036 7.27688423 292.20953686 6.33070987 292.33593082 5.35586357 C292.44078865 4.53289689 292.54564648 3.70993021 292.65368181 2.86202514 C293 1 293 1 294 0 C364.95 0 435.9 0 509 0 C509 208.56 509 417.12 509 632 C461.15 632 413.3 632 364 632 C363.505 428.555 363.505 428.555 363 221 C345.27249244 354.01572694 345.27249244 354.01572694 327.54711914 487.03173828 C324.12390137 512.71264648 324.12390137 512.71264648 322.52293396 524.72116089 C321.40083122 533.13833332 320.27926737 541.55557735 319.1580658 549.97286987 C317.86585538 559.67397762 316.57296844 569.37499492 315.27923569 579.07589977 C314.61707478 584.04120063 313.95522439 589.00654234 313.29424298 593.97200036 C312.6969439 598.4590164 312.09874543 602.94591157 311.4998188 607.43271065 C311.28308346 609.05758774 311.06668301 610.68250955 310.8506459 612.30747962 C310.55679954 614.51733449 310.26174419 616.72702471 309.96638584 618.93667793 C309.80272638 620.16469348 309.63906692 621.39270903 309.47044808 622.65793717 C309.03103581 625.77952165 308.51824477 628.89053137 308 632 C273.68 632 239.36 632 204 632 C202.84177734 623.91749756 201.68355469 615.83499512 200.49023438 607.50756836 C196.70974052 581.12636325 192.92878715 554.74522403 189.14757219 528.36412227 C188.5523169 524.21109176 187.95706546 520.0580607 187.36181641 515.9050293 C187.18418905 514.66573025 187.18418905 514.66573025 187.00297326 513.40139485 C185.35791416 501.92382636 183.71305957 490.44622859 182.06837833 478.96860595 C179.22319294 459.11311009 176.37758163 439.25767532 173.53125 419.40234375 C173.41946081 418.62252244 173.30767161 417.84270114 173.19249487 417.03924888 C164.49317258 356.35494744 155.76036693 295.67552138 147 235 C146.16309626 257.19561211 145.83495064 279.36220984 145.79939139 301.57229114 C145.79120671 306.02849393 145.77757468 310.484681 145.76467896 314.94087219 C145.7431656 322.62053419 145.72493261 330.30019798 145.70907402 337.97987366 C145.68614156 349.08273045 145.65803436 360.18556967 145.62875474 371.28841132 C145.58136097 389.31189527 145.53802251 407.33538652 145.49731445 425.35888672 C145.45781445 442.84359298 145.41635473 460.32829284 145.37231445 477.81298828 C145.36822804 479.43575763 145.36822804 479.43575763 145.36405908 481.0913102 C145.35037723 486.51983599 145.33665743 491.94836168 145.32291877 497.37688732 C145.20939849 542.25124549 145.10325491 587.1256168 145 632 C97.15 632 49.3 632 0 632 C0 423.44 0 214.88 0 0 Z " fill="#00FE00" transform="translate(22,184)"/>
<path d="M0 0 C54.78 0 109.56 0 166 0 C166.33 77.55 166.66 155.1 167 235 C187.72070027 166.48277277 187.72070027 166.48277277 208.36846924 97.94366455 C218.1875467 65.27792002 228.09172219 32.63903278 238 0 C289.15 0 340.3 0 393 0 C390.99726112 7.34337591 388.9133985 14.52527235 386.48046875 21.71875 C386.14575058 22.71734039 385.81103241 23.71593079 385.46617126 24.74478149 C384.74897649 26.8840034 384.03050362 29.02279717 383.31085205 31.16119385 C381.37848078 36.90455195 379.45667485 42.65144099 377.53515625 48.3984375 C377.1468866 49.55930878 376.75861694 50.72018005 376.35858154 51.91622925 C372.8899853 62.30073543 369.49634479 72.70859671 366.125 83.125 C360.67678785 99.94816726 355.10590499 116.72876344 349.5 133.5 C343.65560431 150.98478866 337.86123011 168.48324766 332.18331909 186.02279663 C328.55819747 197.21537144 324.88350363 208.39047036 321.16015625 219.55078125 C320.94982128 220.18127758 320.73948631 220.81177391 320.52277756 221.46137619 C317.85141366 229.46711005 315.17229188 237.47023345 312.49057007 245.47250366 C311.36689909 248.83691576 310.25329392 252.20452858 309.14111328 255.57275391 C307.74032894 259.8102163 306.29303117 264.02717473 304.80810547 268.23583984 C304.14127118 270.18185296 303.47475063 272.12797363 302.80859375 274.07421875 C302.49277847 274.93521683 302.1769632 275.7962149 301.85157776 276.68330383 C299.69921381 283.09063458 300.13481608 287.56863072 302 294 C302.40344887 295.45916084 302.40344887 295.45916084 302.81504822 296.94779968 C303.77328839 300.32046999 304.7799678 303.67581315 305.796875 307.03125 C306.18185273 308.31383357 306.56639697 309.59654733 306.95054626 310.87937927 C307.77698863 313.63625865 308.60619008 316.39228671 309.43759155 319.14767456 C310.78061117 323.59906169 312.11708827 328.05239678 313.45239258 332.50610352 C313.91553168 334.05061668 314.37868179 335.59512654 314.84184265 337.13963318 C315.07383551 337.91327147 315.30582836 338.68690975 315.5448513 339.48399162 C316.2600127 341.86801235 316.97578312 344.25184944 317.69172668 346.63563538 C322.26976283 361.8806649 326.8079834 377.13742194 331.33898926 392.39648438 C333.40033084 399.33839999 335.46346711 406.2797823 337.5265007 413.22119522 C338.23276097 415.59755641 338.938967 417.9739337 339.64517212 420.35031128 C344.99411747 438.34855505 350.35130143 456.34434644 355.70824814 474.34020996 C364.75926931 504.74596853 373.8050597 535.15327707 382.84436417 565.56252098 C383.26872927 566.99010997 383.69311425 568.41769306 384.11751938 569.84527016 C385.14849157 573.31330101 386.17907661 576.78144592 387.20880127 580.24984741 C389.22845833 587.05104972 391.25320371 593.85067034 393.28870201 600.64715099 C394.32089273 604.09451989 395.35106756 607.54248972 396.38107681 610.99051094 C396.87937924 612.65656325 397.37866353 614.32232224 397.87896347 615.9877758 C398.57166154 618.29394145 399.26104011 620.6010752 399.94970703 622.90844727 C400.26236197 623.94459388 400.26236197 623.94459388 400.58133316 625.00167274 C402 629.77227504 402 629.77227504 402 632 C345.9 632 289.8 632 232 632 C230.03145719 626.09437158 228.22771731 620.34118206 226.74194336 614.32421875 C226.53593632 613.5022123 226.32992928 612.68020584 226.1176796 611.8332901 C225.43833731 609.11886267 224.76405012 606.40320723 224.08984375 603.6875 C223.60585986 601.74883037 223.12158483 599.8102334 222.63703918 597.8717041 C221.33668697 592.66528889 220.04087186 587.45775436 218.74601746 582.24996948 C217.66041591 577.88621472 216.57212624 573.52313218 215.48385811 569.16004181 C208.86378355 542.61702904 202.29109443 516.06258222 195.75 489.5 C186.25516062 450.97808023 176.62255401 412.49021606 167 374 C166.67 459.14 166.34 544.28 166 632 C111.22 632 56.44 632 0 632 C0 423.44 0 214.88 0 0 Z " fill="#00FE00" transform="translate(576,184)"/>
</svg>
